<?xml version="1.0" standalone="no"?>
<!DOCTYPE svg PUBLIC "-//W3C//DTD SVG 20010904//EN"
 "http://www.w3.org/TR/2001/REC-SVG-20010904/DTD/svg10.dtd">
<svg version="1.0" xmlns="http://www.w3.org/2000/svg"
 width="260.000000pt" height="260.000000pt" viewBox="0 0 260.000000 260.000000"
 preserveAspectRatio="xMidYMid meet">
<metadata>
Created by potrace 1.14, written by Peter Selinger 2001-2017
</metadata>
<g transform="translate(0.000000,260.000000) scale(0.100000,-0.100000)"
fill="#000000" stroke="none">
<path d="M383 2586 c-131 -32 -271 -142 -326 -256 -59 -123 -58 -97 -55 -1056
l3 -879 23 -59 c63 -167 204 -290 370 -325 74 -15 1730 -15 1804 0 166 35 307
158 370 325 l23 59 0 905 0 905 -23 59 c-63 167 -204 290 -370 325 -80 17
-1749 14 -1819 -3z m1667 -1286 l0 -750 -250 0 -250 0 0 250 0 250 -250 0
-250 0 0 250 0 250 -250 0 -250 0 0 250 0 250 750 0 750 0 0 -750z"/>
</g>
</svg>
